<?xml version="1.0" encoding="UTF-8"?>
<svg id="t1" xmlns="http://www.w3.org/2000/svg" xmlns:xlink="http://www.w3.org/1999/xlink" width="220" height="225" zoomAndPan="disable" viewBox="0 0 220 300" x="0" y="0">
	<!--script type="text/ecmascript"><![CDATA[



	]]></script-->
	<defs>
	<text id="text1">Norden</text>
	<text id="text2">Westen</text>
	<text id="text3">Süden</text>
	<text id="text4">Osten</text>
	<text id="text5">Zoom Out</text>
	<text id="text6">Zoom In</text>
	<text id="text7">Reset</text>
	<text id="text8"></text>	
	
		<symbol  id="naviPfeil" >
		<path d="M 0 66 L 22 0 L 44 66 L 22 44 Z" ></path>
		</symbol>
	</defs>
	
	<g>
	<rect width="180" height="25" x="10" y="10" stroke="black" fill="none" stroke-width="2"></rect>
	<text id="infoText1" x="70" y="30" font-size="20"> </text>
	</g>
	
	
	<g id="navigation" transform="translate(0,50)">
	<use id="Nordpfeil" xlink:href="#naviPfeil" x="78" y="1" style= "stroke:black;fill:blue" onclick="top.setPfeil(1)"/>
	<use xlink:href="#naviPfeil" x="78" y="0" transform="rotate(90, 100, 100)"  style= "stroke:black;fill:blue" onclick="top.setPfeil(2)"/>
	<use xlink:href="#naviPfeil" x="78" y="0" transform="rotate(180, 100, 100)" onclick="top.setPfeil(3)"/>
	<use xlink:href="#naviPfeil" x="78" y="0" transform="rotate(-90, 100, 100)"  onclick="top.setPfeil(4)"/>
	
	<g onclick="top.setDocGroesse(1)" >
	<circle r="15" cx="75" cy="100" fill="rgb(211,211,211)" stroke-width="2" stroke="black"/>
	<line x1="68" x2="82" y1="100" y2="100" stroke-width="2" stroke="black"/>	
	</g>
	<g  onclick="top.setDocGroesse(2)" >
	<circle r="15" cx="125" cy="100" fill="rgb(211,211,211)" stroke-width="2" stroke="black"></circle>
	<line x1="118" x2="132" y1="100" y2="100" stroke-width="2" stroke="black"></line>
	<line x1="125" x2="125" y1="93" y2="107" stroke-width="2" stroke="black"></line>
	</g>
	<g onclick="top.resetButton()" >
	<circle r="15" cx="100" cy="75" fill="rgb(211,211,211)" stroke-width="2" stroke="black"/>
	<text text-anchor="middle"  x="100" y="80" style="font-size:17;font-weight:bold">R</text>
	</g>
	<!--g onclick="legende()" >
	<circle r="15" cx="100" cy="125" fill="rgb(211,211,211)" stroke-width="2" stroke="black"></circle>
	<text text-anchor="middle"  x="100" y="131" style="font-size:17;font-weight:bold">L</text>
	</g-->
	</g>
	
	<!--g>
	<rect width="400" height="25" x="-100" y="260" stroke="black" fill="none" stroke-width="2"></rect>
	<text id="infoText2" text-anchor="middle" x="100" y="280" style="font-size:20">Kurz-Information</text>
	</g-->

</svg>
